# xmcd
#
# Track frame offsets:
#	150
#	14598
#	27835
#	41156
#	54156
#	68045
#	82005
#	97146
#	108473
#	121661
#	133550
#	144679
#	158343
#	171715
#	184985
#	198143
#	210833
#	224807
#
# Disc length: 3188 seconds
#
# Revision: 0
# Processed by: cddbd v1.5.2PL0 Copyright (c) Steve Scherf et al.
# Submitted via: EasyCDDAExtractor 9.0.0.1
#
DISCID=050c7212
DTITLE=Al Martino - Great Gentlemen Of Song
DYEAR=2006
DGENRE=Alternative
TTITLE0=Don't Take You Love From Me
TTITLE1=Fasination
TTITLE2=For All We Know
TTITLE3=I Wish You Love
TTITLE4=I'm In The Mood For Love
TTITLE5=Love Letters
TTITLE6=Once Upon A Time
TTITLE7=That's My Desire
TTITLE8=The More I See You
TTITLE9=There Are Such Things
TTITLE10=This Is My Song
TTITLE11=Till
TTITLE12=You Always Hurt The One You Love
TTITLE13=An Affair To Remember
TTITLE14=And That Reminds Me
TTITLE15=Are You Lonesome Tonight
TTITLE16=Autumn Leaves
TTITLE17=Close To You
EXTD=
EXTT0=
EXTT1=
EXTT2=
EXTT3=
EXTT4=
EXTT5=
EXTT6=
EXTT7=
EXTT8=
EXTT9=
EXTT10=
EXTT11=
EXTT12=
EXTT13=
EXTT14=
EXTT15=
EXTT16=
EXTT17=
PLAYORDER=
